<?xml version="1.0" encoding="utf-8"?>
<!-- Generator: Adobe Illustrator 16.0.0, SVG Export Plug-In . SVG Version: 6.00 Build 0)  -->
<!DOCTYPE svg PUBLIC "-//W3C//DTD SVG 1.1//EN" "http://www.w3.org/Graphics/SVG/1.1/DTD/svg11.dtd">
<svg version="1.1" xmlns="http://www.w3.org/2000/svg" xmlns:xlink="http://www.w3.org/1999/xlink" x="0px" y="0px" width="1920px"
	 height="1080px" viewBox="0 0 1920 1080" enable-background="new 0 0 1920 1080" xml:space="preserve">
<g id="Capa_1">
</g>
<g id="Capa_2">
</g>
<g id="Capa_3">
	<g opacity="0.2">
		<path fill="#FFFFFF" d="M363.215,560.947c0-6.6-5.4-12-12-12H249.788c-6.6,0-12-5.4-12-12v-1.951c0-6.6-5.4-12-12-12H162.42
			c-6.6,0-12,5.4-12,12v2.529c0,6.6,5.4,12,12,12h8.871c6.6,0,12,5.4,12,12v0.508c0,6.6-5.4,12-12,12h-20.115c-6.6,0-12,5.4-12,12
			v2.527c0,6.6,5.4,12,12,12h155.923c6.6,0,12-5.4,12-12v-1.084c0-6.6,5.4-12,12-12h20.116c6.6,0,12-5.4,12-12V560.947z"/>
	</g>
	<g opacity="0.2">
		<path fill="#FFFFFF" d="M663.573,684.443c-6.6,0-12-5.4-12-12v-0.221c0-6.6-5.4-12-12-12h-63.367c-6.6,0-12,5.4-12,12v2.529
			c0,6.6,5.4,12,12,12h20.981c6.6,0,12,5.4,12,12v0.219c0,6.6,5.4,12,12,12h93.643c6.6,0,12-5.4,12-12v-2.527c0-6.6-5.4-12-12-12
			H663.573z"/>
	</g>
	<g opacity="0.2">
		<path fill="#FFFFFF" d="M771.727,503.189c-6.6,0-12-4.931-12-10.957s5.4-10.957,12-10.957h14.924c6.6,0,12-5.4,12-12v-2.528
			c0-6.6-5.4-12-12-12H679.168c-6.6,0-12,5.4-12,12v2.528c0,6.6,5.4,12,12,12h8.871c6.6,0,12,4.931,12,10.957s-5.4,10.957-12,10.957
			h-51.834c-6.6,0-12,5.4-12,12v2.527c0,6.6,5.4,12,12,12h194.85c6.6,0,12-5.4,12-12v-2.527c0-6.6-5.4-12-12-12H771.727z"/>
	</g>
	<g opacity="0.2">
		<path fill="#FFFFFF" d="M1090.077,573.441c0-6.6-5.4-12-12-12H970.596c-6.6,0-12,5.4-12,12v2.527c0,6.6,5.4,12,12,12h9.735
			c6.6,0,12,4.931,12,10.957s-5.4,10.957-12,10.957h-52.697c-6.6,0-12,5.4-12,12v2.527c0,6.6,5.4,12,12,12h85.135
			c6.6,0,12-5.4,12-12v-0.221c0-6.6,5.4-12,12-12h2.383c6.6,0,12-5.4,12-12v-0.221c0-6.6,5.4-12,12-12h14.926c6.6,0,12-5.4,12-12
			V573.441z"/>
	</g>
	<g opacity="0.2">
		<path fill="#FFFFFF" d="M1422.421,763.55c6.601-0.054,11.956-5.497,11.902-12.098l-0.021-2.527
			c-0.054-6.601-5.497-11.956-12.098-11.902l-70.341,0.576c-6.601,0.054-12.044-5.302-12.097-11.902l-0.002-0.223
			c-0.053-6.601-5.496-11.956-12.097-11.902l-44.29,0.361c-6.601,0.054-11.956,5.497-11.902,12.098l0.021,2.527
			c0.054,6.601,5.497,11.956,12.098,11.901l9.735-0.08c6.601-0.055,12.04,4.832,12.089,10.859c0.05,6.027-5.31,11.002-11.91,11.056
			l-52.696,0.428c-6.601,0.054-11.956,5.497-11.902,12.098l0.021,2.527c0.054,6.601,5.497,11.956,12.098,11.902l85.131-0.693
			c6.601-0.054,11.956-5.497,11.902-12.098l-0.001-0.221c-0.054-6.601,5.302-12.044,11.902-12.098L1422.421,763.55z"/>
	</g>
</g>
</svg>
