<?xml version="1.0" encoding="utf-8"?>
<!-- Generator: Adobe Illustrator 16.0.0, SVG Export Plug-In . SVG Version: 6.00 Build 0)  -->
<!DOCTYPE svg PUBLIC "-//W3C//DTD SVG 1.1//EN" "http://www.w3.org/Graphics/SVG/1.1/DTD/svg11.dtd">
<svg version="1.1" id="Capa_1" xmlns="http://www.w3.org/2000/svg" xmlns:xlink="http://www.w3.org/1999/xlink" x="0px" y="0px"
	 width="899.999px" height="1239.936px" viewBox="-368.847 -508.162 899.999 1239.936"
	 enable-background="new -368.847 -508.162 899.999 1239.936" xml:space="preserve">
<g>
	<path fill="#F3F0F0" d="M462.429,13.446c0,258.294-174.637,467.696-390.054,467.696c-215.439,0-390.065-209.407-390.065-467.696
		c0-258.316,174.626-467.707,390.065-467.707C287.788-454.26,462.429-244.87,462.429,13.446z"/>
	<path fill="#E52F21" d="M83.666-508.075v892.493c10.841-46.266,75.27-350.626,7.354-787.418
		c47.334,1.37,92.284,12.238,133.044,30.888c87.676,244.941-39.812,741.721-39.812,741.721
		c199.081-396.937,135.513-620.613,73.613-723.917c100.569,60.254,168.36,169.872,168.626,295.426
		c0.281,128.132-144.946,407.789-247.632,486.828l-95.197-0.942v102.724l131.229-0.271
		C355.73,447.309,531.499,110.615,531.152-59.121C530.633-306.467,330.578-506.722,83.666-508.075z"/>
	<path fill="#D02B22" d="M-15.771,425.962C-116.758,340.365-263.95,59.87-264.183-57.427
		c-0.26-121.363,62.62-228.268,157.428-290.075c-57,99.562-100.916,310.279,87.654,717.559c0,0-129.762-497.094-42.698-742.208
		c39.249-17.978,82.439-28.646,127.926-30.601C39.576-266.525-7.497,65.231,82.106,390.737c0,0,0.623-2.269,1.56-6.324v-892.488
		c-1.164,0-2.296-0.087-3.46-0.087c-248.515,0.547-449.572,202.438-449.052,450.953c0.347,162.609,189.014,508.006,318.597,587.207
		l133.915-0.271V427.002L-15.771,425.962z"/>
	<path fill="#775034" d="M209.009,532.905c1.944-1.023,3.921-2.307,5.887-3.443l-131.229,0.271v1.917l71.052,0.736l-24,71.555
		l-47.052,0.087v127.547l92.848-0.189c13.212-0.043,23.891-10.798,23.858-23.979l-0.173-79.721
		c-0.022-13.196-10.744-23.913-23.94-23.896h-1.387l23.838-71.003L209.009,532.905z"/>
	<path fill="#775034" d="M27.744,604.129L2.775,530.793l80.886,0.845v-1.917l-133.916,0.271c0.146,0.081,0.292,0.189,0.406,0.281
		l8.242,0.093l25.505,74.863c-10.749,2.334-18.931,11.49-18.92,22.928l0.168,79.748c0.022,13.18,10.798,23.918,23.989,23.869
		l94.521-0.206V604.021L27.744,604.129z"/>
	<rect x="-196.137" y="-243.251" fill="#F3F0F0" width="562.979" height="371.221"/>
	<text transform="matrix(1 0 0 1 -79.5608 65.0793)" fill="#E52F21" font-family="'MyriadPro-Regular'" font-size="316.0679">E3</text>
</g>
</svg>
