<?xml version="1.0" encoding="utf-8"?>
<!-- Generator: Adobe Illustrator 16.0.0, SVG Export Plug-In . SVG Version: 6.00 Build 0)  -->
<!DOCTYPE svg PUBLIC "-//W3C//DTD SVG 1.1//EN" "http://www.w3.org/Graphics/SVG/1.1/DTD/svg11.dtd">
<svg version="1.1" id="Capa_1" xmlns="http://www.w3.org/2000/svg" xmlns:xlink="http://www.w3.org/1999/xlink" x="0px" y="0px"
	 width="900px" height="1239.938px" viewBox="-368.846 -508.163 900 1239.938"
	 enable-background="new -368.846 -508.163 900 1239.938" xml:space="preserve">
<g>
	<path fill="#F3F0F0" d="M72.367-454.255c215.43,0,390.067,209.397,390.067,467.699c0,258.307-174.638,467.704-390.067,467.704
		c-215.425,0-390.062-209.397-390.062-467.704C-317.695-244.858-143.057-454.255,72.367-454.255z"/>
	
		<linearGradient id="SVGID_1_" gradientUnits="userSpaceOnUse" x1="314.6575" y1="-107.2131" x2="762.1536" y2="-107.2131" gradientTransform="matrix(1 0 0 -1 -231 -96.3882)">
		<stop  offset="0.1463" style="stop-color:#BDCE1B"/>
		<stop  offset="1" style="stop-color:#8B9B26"/>
	</linearGradient>
	<path fill="url(#SVGID_1_)" d="M83.663-508.082v892.505c10.841-46.268,75.27-350.63,7.354-787.424
		c47.339,1.37,92.29,12.238,133.05,30.888c87.671,244.942-39.812,741.726-39.812,741.726
		C383.33-27.327,319.763-250.999,257.863-354.308C358.437-294.049,426.23-184.436,426.49-58.881
		c0.281,128.138-144.941,407.791-247.634,486.83l-95.198-0.948v102.73l131.23-0.271c140.848-82.147,316.616-418.844,316.265-588.58
		C530.638-306.471,330.581-506.727,83.663-508.082z"/>
	
		<linearGradient id="SVGID_2_" gradientUnits="userSpaceOnUse" x1="579.3323" y1="-107.302" x2="188.0713" y2="-107.302" gradientTransform="matrix(1 0 0 -1 -231 -96.3882)">
		<stop  offset="0.1463" style="stop-color:#BDCE1B"/>
		<stop  offset="1" style="stop-color:#8B9B26"/>
	</linearGradient>
	<path fill="url(#SVGID_2_)" d="M-15.769,425.962C-116.756,340.37-263.95,59.867-264.182-57.425
		c-0.26-121.369,62.62-228.274,157.423-290.082c-57,99.562-100.916,310.281,87.66,717.562c0,0-129.763-497.097-42.698-742.212
		c39.249-17.978,82.439-28.646,127.921-30.601C39.573-266.529-7.495,65.228,82.104,390.741c0,0,0.622-2.273,1.554-6.324v-892.499
		c-1.164,0-2.29-0.086-3.455-0.086c-248.511,0.547-449.569,202.438-449.049,450.955c0.341,162.605,189.015,508.009,318.599,587.21
		l133.911-0.271V426.996L-15.769,425.962z"/>
	<path fill="#775034" d="M209.013,532.9c1.938-1.023,3.92-2.301,5.881-3.438l-131.23,0.271v1.917l71.057,0.736l-23.999,71.55
		l-47.058,0.082V731.57l92.848-0.189c13.213-0.038,23.896-10.792,23.859-23.973l-0.168-79.722
		c-0.021-13.202-10.75-23.919-23.946-23.892h-1.386l23.837-71.008L209.013,532.9z"/>
	<path fill="#775034" d="M27.741,604.136L2.772,530.793l80.885,0.851v-1.918l-133.91,0.271c0.141,0.076,0.292,0.184,0.4,0.281
		l8.242,0.087l25.505,74.864c-10.743,2.334-18.926,11.502-18.915,22.928l0.163,79.748c0.022,13.186,10.798,23.919,23.989,23.875
		l94.521-0.211V604.022L27.741,604.136z"/>
	<rect x="-196.141" y="-243.255" fill="#F3F0F0" width="562.988" height="371.223"/>
	<text transform="matrix(1 0 0 1 -191.2332 65.0793)" fill="#4E782D" font-family="'MyriadPro-Regular'" font-size="316.0698">ECO</text>
</g>
</svg>
