<?xml version="1.0" encoding="utf-8"?>
<!-- Generator: Adobe Illustrator 16.0.0, SVG Export Plug-In . SVG Version: 6.00 Build 0)  -->
<!DOCTYPE svg PUBLIC "-//W3C//DTD SVG 1.1//EN" "http://www.w3.org/Graphics/SVG/1.1/DTD/svg11.dtd">
<svg version="1.1" id="Capa_1" xmlns="http://www.w3.org/2000/svg" xmlns:xlink="http://www.w3.org/1999/xlink" x="0px" y="0px"
	 width="900px" height="1239.949px" viewBox="-368.847 -508.168 900 1239.949"
	 enable-background="new -368.847 -508.168 900 1239.949" xml:space="preserve">
<g>
	<path fill="#F3F0F0" d="M72.367-454.255c215.43,0,390.067,209.397,390.067,467.699c0,258.307-174.638,467.704-390.067,467.704
		c-215.424,0-390.062-209.397-390.062-467.704C-317.695-244.858-143.057-454.255,72.367-454.255z"/>
	
		<linearGradient id="SVGID_1_" gradientUnits="userSpaceOnUse" x1="431.6125" y1="-106.7283" x2="1439.9363" y2="-99.8702" gradientTransform="matrix(1 0 0 -1 -231 -96.3882)">
		<stop  offset="0.279" style="stop-color:#EE7509"/>
		<stop  offset="0.8484" style="stop-color:#D05134"/>
	</linearGradient>
	<path fill="url(#SVGID_1_)" d="M83.663-508.081v892.503c10.841-46.267,75.27-350.634,7.354-787.423
		c47.339,1.37,92.29,12.238,133.05,30.888c87.671,244.942-39.812,741.726-39.812,741.726
		C383.33-27.322,319.763-250.999,257.863-354.308C358.437-294.049,426.229-184.436,426.49-58.881
		c0.281,128.138-144.941,407.786-247.634,486.831l-95.198-0.953v102.735l131.23-0.271
		c140.848-82.147,316.616-418.849,316.265-588.581C530.638-306.471,330.582-506.728,83.663-508.081z"/>
	
		<linearGradient id="SVGID_2_" gradientUnits="userSpaceOnUse" x1="535.9622" y1="-107.3015" x2="213.5042" y2="-107.3015" gradientTransform="matrix(1 0 0 -1 -231 -96.3882)">
		<stop  offset="0.279" style="stop-color:#EE7509"/>
		<stop  offset="0.8484" style="stop-color:#D05134"/>
	</linearGradient>
	<path fill="url(#SVGID_2_)" d="M-15.769,425.956C-116.756,340.37-263.949,59.872-264.182-57.425
		c-0.26-121.369,62.62-228.274,157.423-290.083c-57,99.562-100.916,310.281,87.66,717.558c0,0-129.763-497.092-42.698-742.208
		c39.249-17.978,82.445-28.646,127.927-30.601C39.573-266.529-7.495,65.217,82.109,390.741c0,0,0.623-2.279,1.555-6.324v-892.499
		c-1.17,0-2.296-0.087-3.455-0.087c-248.516,0.547-449.574,202.439-449.054,450.955c0.341,162.611,189.015,508.008,318.599,587.21
		l133.911-0.271V426.99L-15.769,425.956z"/>
	<path fill="#775034" d="M209.012,532.894c1.939-1.023,3.921-2.296,5.881-3.433l-131.229,0.271v1.917l71.057,0.736l-23.999,71.545
		l-47.058,0.087V731.57l92.848-0.195c13.213-0.032,23.896-10.786,23.859-23.967l-0.168-79.722
		c-0.022-13.202-10.749-23.924-23.946-23.896h-1.386l23.837-71.003L209.012,532.894z"/>
	<path fill="#775034" d="M27.747,604.136L2.778,530.793l80.886,0.851v-1.917l-133.911,0.271c0.141,0.075,0.292,0.184,0.401,0.281
		l8.242,0.081l25.511,74.87c-10.749,2.328-18.932,11.501-18.92,22.928l0.162,79.742c0.022,13.191,10.798,23.925,23.989,23.881
		l94.521-0.211V604.022L27.747,604.136z"/>
	<rect x="-196.141" y="-243.255" fill="#F3F0F0" width="562.988" height="371.223"/>
	<text transform="matrix(1 0 0 1 -226.4519 56.47)" fill="#CD5216" font-family="'MyriadPro-Regular'" font-size="286.723">GAIA</text>
</g>
</svg>
