<?xml version="1.0" encoding="utf-8"?>
<!-- Generator: Adobe Illustrator 16.0.0, SVG Export Plug-In . SVG Version: 6.00 Build 0)  -->
<!DOCTYPE svg PUBLIC "-//W3C//DTD SVG 1.1//EN" "http://www.w3.org/Graphics/SVG/1.1/DTD/svg11.dtd">
<svg version="1.1" id="Capa_1" xmlns="http://www.w3.org/2000/svg" xmlns:xlink="http://www.w3.org/1999/xlink" x="0px" y="0px"
	 width="900px" height="1239.936px" viewBox="0 0 900 1239.936" enable-background="new 0 0 900 1239.936" xml:space="preserve">
<g>
	<path fill="#F3F0F0" d="M831.277,521.607c0,258.294-174.638,467.695-390.055,467.695c-215.439,0-390.065-209.406-390.065-467.695
		c0-258.316,174.626-467.707,390.065-467.707C656.635,53.902,831.277,263.292,831.277,521.607z"/>
	<linearGradient id="SVGID_1_" gradientUnits="userSpaceOnUse" x1="712.2837" y1="518.9873" x2="404.9152" y2="518.9873">
		<stop  offset="0.1624" style="stop-color:#A6297F"/>
		<stop  offset="0.8243" style="stop-color:#7A1C5C"/>
	</linearGradient>
	<path fill="url(#SVGID_1_)" d="M452.513,0.086v892.493c10.841-46.266,75.27-350.625,7.354-787.417
		c47.334,1.37,92.285,12.238,133.045,30.888c87.676,244.941-39.812,741.721-39.812,741.721
		c199.081-396.937,135.513-620.613,73.613-723.917c100.568,60.254,168.359,169.872,168.626,295.426
		c0.281,128.132-144.946,407.789-247.632,486.828l-95.197-0.942v102.724l131.229-0.271C724.578,955.47,900.347,618.777,900,449.041
		C899.48,201.695,699.425,1.439,452.513,0.086z"/>
	<linearGradient id="SVGID_2_" gradientUnits="userSpaceOnUse" x1="483.3413" y1="519.0796" x2="440.5938" y2="519.0796">
		<stop  offset="0.1624" style="stop-color:#A6297F"/>
		<stop  offset="0.8243" style="stop-color:#7A1C5C"/>
	</linearGradient>
	<path fill="url(#SVGID_2_)" d="M353.076,934.123c-100.987-85.597-248.179-366.091-248.412-483.388
		c-0.26-121.363,62.62-228.268,157.428-290.075c-57,99.562-100.916,310.279,87.654,717.559c0,0-129.762-497.094-42.698-742.208
		c39.249-17.978,82.439-28.646,127.926-30.601c-26.551,136.227-73.624,467.983,15.979,793.489c0,0,0.623-2.27,1.561-6.324V0.086
		c-1.164,0-2.296-0.087-3.46-0.087C200.538,0.546-0.519,202.438,0.001,450.953c0.347,162.609,189.014,508.005,318.597,587.207
		l133.915-0.271V935.163L353.076,934.123z"/>
	<path fill="#775034" d="M577.856,1041.066c1.944-1.023,3.921-2.308,5.888-3.443l-131.229,0.271v1.917l71.052,0.735l-24,71.556
		l-47.052,0.087v127.547l92.849-0.189c13.211-0.043,23.891-10.798,23.857-23.979l-0.173-79.722
		c-0.022-13.195-10.744-23.912-23.94-23.896h-1.387l23.838-71.003L577.856,1041.066z"/>
	<path fill="#775034" d="M396.591,1112.29l-24.969-73.336l80.886,0.845v-1.917l-133.916,0.271c0.146,0.081,0.292,0.188,0.406,0.281
		l8.242,0.093l25.505,74.862c-10.749,2.334-18.931,11.49-18.92,22.929l0.168,79.748c0.022,13.18,10.798,23.918,23.989,23.869
		l94.521-0.206v-127.547L396.591,1112.29z"/>
</g>
</svg>
