<?xml version="1.0" encoding="utf-8"?>
<!-- Generator: Adobe Illustrator 16.0.0, SVG Export Plug-In . SVG Version: 6.00 Build 0)  -->
<!DOCTYPE svg PUBLIC "-//W3C//DTD SVG 1.1//EN" "http://www.w3.org/Graphics/SVG/1.1/DTD/svg11.dtd">
<svg version="1.1" id="Capa_1" xmlns="http://www.w3.org/2000/svg" xmlns:xlink="http://www.w3.org/1999/xlink" x="0px" y="0px"
	 width="229.608px" height="229.608px" viewBox="0 0 229.608 229.608" enable-background="new 0 0 229.608 229.608"
	 xml:space="preserve">
<circle fill="none" stroke="#706F6F" stroke-width="3" stroke-miterlimit="10" cx="114.804" cy="114.805" r="113.304"/>
<g>
	<path d="M105.36,118.525H80.65v22.919h27.54v6.885H72.445V84.761h34.331v6.886H80.65v20.089h24.71V118.525z"/>
	<path d="M163.271,146.254c-3.019,1.51-9.055,3.019-16.788,3.019c-17.92,0-31.407-11.318-31.407-32.161
		c0-19.9,13.487-33.388,33.199-33.388c7.923,0,12.921,1.697,15.09,2.829l-1.98,6.696c-3.112-1.509-7.545-2.641-12.827-2.641
		c-14.901,0-24.804,9.526-24.804,26.22c0,15.562,8.96,25.56,24.427,25.56c4.999,0,10.092-1.038,13.393-2.642L163.271,146.254z"/>
	<path d="M225.896,115.885c0,21.881-13.299,33.481-29.521,33.481c-16.788,0-28.577-13.015-28.577-32.255
		c0-20.184,12.544-33.388,29.521-33.388C214.673,83.724,225.896,97.021,225.896,115.885z M176.57,116.922
		c0,13.582,7.356,25.748,20.277,25.748c13.016,0,20.372-11.978,20.372-26.408c0-12.638-6.603-25.842-20.278-25.842
		C183.36,90.42,176.57,102.964,176.57,116.922z"/>
</g>
</svg>
