<?xml version="1.0" encoding="utf-8"?>
<!-- Generator: Adobe Illustrator 16.0.0, SVG Export Plug-In . SVG Version: 6.00 Build 0)  -->
<!DOCTYPE svg PUBLIC "-//W3C//DTD SVG 1.1//EN" "http://www.w3.org/Graphics/SVG/1.1/DTD/svg11.dtd">
<svg version="1.1" id="Capa_1" xmlns="http://www.w3.org/2000/svg" xmlns:xlink="http://www.w3.org/1999/xlink" x="0px" y="0px"
	 width="2287.58px" height="3151.612px" viewBox="0 0 2287.58 3151.612" enable-background="new 0 0 2287.58 3151.612"
	 xml:space="preserve">
<g>
	<path fill="#F3F0F0" d="M2112.887,1325.811c0,656.514-443.884,1188.759-991.426,1188.759
		c-547.579,0-991.447-532.245-991.447-1188.759c0-656.573,443.868-1188.799,991.447-1188.799
		C1669.003,137.012,2112.887,669.238,2112.887,1325.811z"/>
	<path fill="#E52F21" d="M1150.165,0.227v2268.492c27.558-117.598,191.319-891.206,18.693-2001.419
		c120.322,3.475,234.562,31.106,338.175,78.501c222.837,622.578-101.188,1885.274-101.188,1885.274
		c506.011-1008.914,344.423-1577.439,187.102-1840.019c255.622,153.156,427.946,431.776,428.605,750.903
		c0.716,325.679-368.402,1036.494-629.417,1237.394l-241.97-2.396v261.103l333.555-0.692
		c357.993-208.795,804.739-1064.587,803.859-1495.999C2286.255,512.652,1777.768,3.661,1150.165,0.227z"/>
	<path fill="#D02B22" d="M897.428,2374.317c-256.68-217.553-630.807-930.517-631.399-1228.655
		c-0.662-308.471,159.165-580.205,400.127-737.298C521.293,661.426,409.668,1197.01,888.963,2232.216
		c0,0-329.819-1263.479-108.527-1886.498c99.761-45.708,209.54-72.811,325.156-77.779
		c-67.483,346.254-187.133,1189.487,40.616,2016.855c0,0,1.586-5.782,3.956-16.075V0.227c-2.964,0-5.827-0.227-8.788-0.227
		C509.717,1.39-1.318,514.552,0.002,1146.207c0.881,413.318,480.425,1291.228,809.792,1492.54l340.371-0.687v-261.103
		L897.428,2374.317z"/>
	<path fill="#775034" d="M1468.77,2646.122c4.929-2.588,9.967-5.863,14.949-8.754l-333.555,0.692v4.867l180.608,1.875
		l-61.001,181.873l-119.607,0.205v324.193l235.994-0.481c33.587-0.112,60.728-27.445,60.646-60.945l-0.443-202.629
		c-0.052-33.545-27.308-60.783-60.862-60.728h-3.525l60.588-180.473L1468.77,2646.122z"/>
	<path fill="#775034" d="M1008.034,2827.17l-63.464-186.401l205.595,2.158v-4.867l-340.371,0.687
		c0.373,0.204,0.743,0.479,1.034,0.713l20.947,0.221l64.827,190.285c-27.32,5.932-48.119,29.22-48.09,58.276l0.426,202.701
		c0.056,33.5,27.446,60.79,60.975,60.669l240.251-0.538V2826.88L1008.034,2827.17z"/>
	<rect x="438.971" y="673.353" fill="#F3F0F0" width="1430.961" height="943.542"/>
	<text transform="matrix(1 0 0 1 735.2969 1457.0264)" fill="#E52F21" font-family="'MyriadPro-Regular'" font-size="803.3646">E3</text>
</g>
</svg>
