<?xml version="1.0" encoding="utf-8"?>
<!-- Generator: Adobe Illustrator 16.0.0, SVG Export Plug-In . SVG Version: 6.00 Build 0)  -->
<!DOCTYPE svg PUBLIC "-//W3C//DTD SVG 1.1//EN" "http://www.w3.org/Graphics/SVG/1.1/DTD/svg11.dtd">
<svg version="1.1" id="Capa_1" xmlns="http://www.w3.org/2000/svg" xmlns:xlink="http://www.w3.org/1999/xlink" x="0px" y="0px"
	 width="1920px" height="1080px" viewBox="0 0 1920 1080" enable-background="new 0 0 1920 1080" xml:space="preserve">
<g id="Capa_1_1_">
	<polygon fill="none" stroke="#FFFFFF" stroke-width="1.5" stroke-miterlimit="10" points="1880.443,1085.76 1880.445,1083.957 
		1681.414,1083.957 1681.416,1085.76 1625.635,1085.76 1625.635,1083.957 1439.539,1083.957 1439.539,1084.154 1422.635,1085.434 
		1396.609,1085.562 1396.609,1083.957 1250.26,1083.957 1250.26,1085.562 1210.246,1085.562 1210.246,1083.957 1030.084,1083.957 
		1030.084,1085.562 986.436,1085.562 986.436,808.952 959.126,808.952 959.126,783.686 903.415,783.686 903.415,808.952 
		886.062,808.952 886.062,783.421 762.88,783.421 762.88,808.952 622.354,808.952 622.354,1085.562 580.271,1085.562 
		580.271,1082.354 444.543,1082.354 444.543,1085.562 398.918,1085.562 398.918,1082.354 258.601,1082.354 258.601,1085.562 
		174.099,1085.562 174.099,1082.354 33.351,1082.354 33.351,1085.562 -7.902,1085.562 -7.902,1136.105 2075.092,1136.105 
		2075.092,1085.76 	"/>
	
		<rect x="685.69" y="855.691" fill="none" stroke="#F6F6F6" stroke-width="1.5" stroke-miterlimit="10" width="71.074" height="18.724"/>
	
		<rect x="685.69" y="952.048" fill="none" stroke="#F6F6F6" stroke-width="1.5" stroke-miterlimit="10" width="71.074" height="18.726"/>
	
		<rect x="685.69" y="903.681" fill="none" stroke="#F6F6F6" stroke-width="1.5" stroke-miterlimit="10" width="71.074" height="18.726"/>
	
		<rect x="809.417" y="855.691" fill="none" stroke="#F6F6F6" stroke-width="1.5" stroke-miterlimit="10" width="112.57" height="18.724"/>
	
		<rect x="809.417" y="952.048" fill="none" stroke="#F6F6F6" stroke-width="1.5" stroke-miterlimit="10" width="112.57" height="18.726"/>
	
		<rect x="809.417" y="903.681" fill="none" stroke="#F6F6F6" stroke-width="1.5" stroke-miterlimit="10" width="112.57" height="18.726"/>
</g>
<g id="Capa_2">
	
		<line fill="none" stroke="#FFFFFF" stroke-width="0.25" stroke-miterlimit="10" x1="685.997" y1="858.196" x2="756.715" y2="858.196"/>
	
		<line fill="none" stroke="#FFFFFF" stroke-width="0.25" stroke-miterlimit="10" x1="685.997" y1="860.077" x2="756.715" y2="860.077"/>
	
		<line fill="none" stroke="#FFFFFF" stroke-width="0.25" stroke-miterlimit="10" x1="685.997" y1="861.957" x2="756.715" y2="861.957"/>
	
		<line fill="none" stroke="#FFFFFF" stroke-width="0.25" stroke-miterlimit="10" x1="685.997" y1="863.838" x2="756.715" y2="863.838"/>
	
		<line fill="none" stroke="#FFFFFF" stroke-width="0.25" stroke-miterlimit="10" x1="685.997" y1="865.719" x2="756.715" y2="865.719"/>
	
		<line fill="none" stroke="#FFFFFF" stroke-width="0.25" stroke-miterlimit="10" x1="685.997" y1="867.598" x2="756.715" y2="867.598"/>
	
		<line fill="none" stroke="#FFFFFF" stroke-width="0.25" stroke-miterlimit="10" x1="685.997" y1="869.479" x2="756.715" y2="869.479"/>
	
		<line fill="none" stroke="#FFFFFF" stroke-width="0.25" stroke-miterlimit="10" x1="685.997" y1="871.357" x2="756.715" y2="871.357"/>
	
		<line fill="none" stroke="#FFFFFF" stroke-width="0.25" stroke-miterlimit="10" x1="685.997" y1="906.569" x2="756.715" y2="906.569"/>
	
		<line fill="none" stroke="#FFFFFF" stroke-width="0.25" stroke-miterlimit="10" x1="685.997" y1="908.45" x2="756.715" y2="908.45"/>
	
		<line fill="none" stroke="#FFFFFF" stroke-width="0.25" stroke-miterlimit="10" x1="685.997" y1="910.332" x2="756.715" y2="910.332"/>
	
		<line fill="none" stroke="#FFFFFF" stroke-width="0.25" stroke-miterlimit="10" x1="685.997" y1="912.212" x2="756.715" y2="912.212"/>
	
		<line fill="none" stroke="#FFFFFF" stroke-width="0.25" stroke-miterlimit="10" x1="685.997" y1="914.092" x2="756.715" y2="914.092"/>
	
		<line fill="none" stroke="#FFFFFF" stroke-width="0.25" stroke-miterlimit="10" x1="685.997" y1="915.972" x2="756.715" y2="915.972"/>
	
		<line fill="none" stroke="#FFFFFF" stroke-width="0.25" stroke-miterlimit="10" x1="685.997" y1="917.854" x2="756.715" y2="917.854"/>
	
		<line fill="none" stroke="#FFFFFF" stroke-width="0.25" stroke-miterlimit="10" x1="685.997" y1="919.732" x2="756.715" y2="919.732"/>
	
		<line fill="none" stroke="#FFFFFF" stroke-width="0.25" stroke-miterlimit="10" x1="685.997" y1="954.83" x2="756.715" y2="954.83"/>
	
		<line fill="none" stroke="#FFFFFF" stroke-width="0.25" stroke-miterlimit="10" x1="685.997" y1="956.71" x2="756.715" y2="956.71"/>
	
		<line fill="none" stroke="#FFFFFF" stroke-width="0.25" stroke-miterlimit="10" x1="685.997" y1="958.591" x2="756.715" y2="958.591"/>
	
		<line fill="none" stroke="#FFFFFF" stroke-width="0.25" stroke-miterlimit="10" x1="685.997" y1="960.471" x2="756.715" y2="960.471"/>
	
		<line fill="none" stroke="#FFFFFF" stroke-width="0.25" stroke-miterlimit="10" x1="685.997" y1="962.352" x2="756.715" y2="962.352"/>
	
		<line fill="none" stroke="#FFFFFF" stroke-width="0.25" stroke-miterlimit="10" x1="685.997" y1="964.23" x2="756.715" y2="964.23"/>
	
		<line fill="none" stroke="#FFFFFF" stroke-width="0.25" stroke-miterlimit="10" x1="685.997" y1="966.112" x2="756.715" y2="966.112"/>
	
		<line fill="none" stroke="#FFFFFF" stroke-width="0.25" stroke-miterlimit="10" x1="685.997" y1="967.992" x2="756.715" y2="967.992"/>
	
		<line fill="none" stroke="#FFFFFF" stroke-width="0.25" stroke-miterlimit="10" x1="809.628" y1="858.196" x2="921.556" y2="858.196"/>
	
		<line fill="none" stroke="#FFFFFF" stroke-width="0.25" stroke-miterlimit="10" x1="809.628" y1="860.077" x2="921.556" y2="860.077"/>
	
		<line fill="none" stroke="#FFFFFF" stroke-width="0.25" stroke-miterlimit="10" x1="809.628" y1="861.957" x2="921.556" y2="861.957"/>
	
		<line fill="none" stroke="#FFFFFF" stroke-width="0.25" stroke-miterlimit="10" x1="809.628" y1="863.838" x2="921.556" y2="863.838"/>
	
		<line fill="none" stroke="#FFFFFF" stroke-width="0.25" stroke-miterlimit="10" x1="809.628" y1="865.719" x2="921.556" y2="865.719"/>
	
		<line fill="none" stroke="#FFFFFF" stroke-width="0.25" stroke-miterlimit="10" x1="809.628" y1="867.598" x2="921.556" y2="867.598"/>
	
		<line fill="none" stroke="#FFFFFF" stroke-width="0.25" stroke-miterlimit="10" x1="809.628" y1="869.479" x2="921.556" y2="869.479"/>
	
		<line fill="none" stroke="#FFFFFF" stroke-width="0.25" stroke-miterlimit="10" x1="809.628" y1="871.357" x2="921.556" y2="871.357"/>
	
		<line fill="none" stroke="#FFFFFF" stroke-width="0.25" stroke-miterlimit="10" x1="809.628" y1="906.569" x2="921.556" y2="906.569"/>
	
		<line fill="none" stroke="#FFFFFF" stroke-width="0.25" stroke-miterlimit="10" x1="809.628" y1="908.45" x2="921.556" y2="908.45"/>
	
		<line fill="none" stroke="#FFFFFF" stroke-width="0.25" stroke-miterlimit="10" x1="809.628" y1="910.332" x2="921.556" y2="910.332"/>
	
		<line fill="none" stroke="#FFFFFF" stroke-width="0.25" stroke-miterlimit="10" x1="809.628" y1="912.212" x2="921.556" y2="912.212"/>
	
		<line fill="none" stroke="#FFFFFF" stroke-width="0.25" stroke-miterlimit="10" x1="809.628" y1="914.092" x2="921.556" y2="914.092"/>
	
		<line fill="none" stroke="#FFFFFF" stroke-width="0.25" stroke-miterlimit="10" x1="809.628" y1="915.972" x2="921.556" y2="915.972"/>
	
		<line fill="none" stroke="#FFFFFF" stroke-width="0.25" stroke-miterlimit="10" x1="809.628" y1="917.854" x2="921.556" y2="917.854"/>
	
		<line fill="none" stroke="#FFFFFF" stroke-width="0.25" stroke-miterlimit="10" x1="809.628" y1="919.732" x2="921.556" y2="919.732"/>
	
		<line fill="none" stroke="#FFFFFF" stroke-width="0.25" stroke-miterlimit="10" x1="809.628" y1="954.83" x2="921.556" y2="954.83"/>
	
		<line fill="none" stroke="#FFFFFF" stroke-width="0.25" stroke-miterlimit="10" x1="809.628" y1="956.71" x2="921.556" y2="956.71"/>
	
		<line fill="none" stroke="#FFFFFF" stroke-width="0.25" stroke-miterlimit="10" x1="809.628" y1="958.591" x2="921.556" y2="958.591"/>
	
		<line fill="none" stroke="#FFFFFF" stroke-width="0.25" stroke-miterlimit="10" x1="809.628" y1="960.471" x2="921.556" y2="960.471"/>
	
		<line fill="none" stroke="#FFFFFF" stroke-width="0.25" stroke-miterlimit="10" x1="809.628" y1="962.352" x2="921.556" y2="962.352"/>
	
		<line fill="none" stroke="#FFFFFF" stroke-width="0.25" stroke-miterlimit="10" x1="809.628" y1="964.23" x2="921.556" y2="964.23"/>
	
		<line fill="none" stroke="#FFFFFF" stroke-width="0.25" stroke-miterlimit="10" x1="809.628" y1="966.112" x2="921.556" y2="966.112"/>
	
		<line fill="none" stroke="#FFFFFF" stroke-width="0.25" stroke-miterlimit="10" x1="809.628" y1="967.992" x2="921.556" y2="967.992"/>
</g>
<g id="Capa_1_2_">
	
		<line fill="none" stroke="#F6F6F6" stroke-width="1.5" stroke-miterlimit="10" x1="227.435" y1="831.752" x2="227.435" y2="867.242"/>
	
		<line fill="none" stroke="#F6F6F6" stroke-width="1.5" stroke-miterlimit="10" x1="227.435" y1="951.592" x2="227.435" y2="986.267"/>
	<polygon fill="none" stroke="#FFFFFF" stroke-width="1.5" stroke-miterlimit="10" points="1880.861,1085.988 1880.865,1083.025 
		1681.832,1083.025 1681.834,1085.988 1626.053,1085.988 1626.053,1083.025 1439.957,1083.025 1439.957,1084.383 1423.053,1085.662 
		1397.027,1085.791 1397.027,1083.025 1250.678,1083.025 1250.678,1085.791 1210.664,1085.791 1210.664,824.449 1149.137,824.449 
		1149.137,803.941 1091.057,803.941 1091.057,824.449 1030.502,824.449 1030.502,1085.791 986.854,1085.791 986.854,1083.026 
		622.773,1083.026 622.773,1085.791 580.69,1085.791 580.69,1081.791 444.961,1081.791 444.961,1085.791 399.336,1085.791 
		399.336,742.152 399.411,721.541 337.084,721.541 337.084,742.152 219.175,742.152 219.175,831.889 259.14,831.889 259.14,866.779 
		219.175,866.779 219.175,951.707 259.502,951.707 259.502,985.991 219.175,985.991 219.175,1015.846 259.019,1015.916 
		259.019,1085.791 174.517,1085.791 174.517,1083.025 33.769,1083.025 33.769,1085.791 -7.484,1085.791 -7.484,1136.334 
		2075.51,1136.334 2075.51,1085.988 	"/>
	
		<rect x="1030.557" y="824.514" fill="none" stroke="#FFFFFF" stroke-width="1.5" stroke-miterlimit="10" width="55.635" height="55.829"/>
	
		<rect x="1155.021" y="890.123" fill="none" stroke="#FFFFFF" stroke-width="1.5" stroke-miterlimit="10" width="55.637" height="42.008"/>
	
		<rect x="1046.662" y="890.123" fill="none" stroke="#FFFFFF" stroke-width="1.5" stroke-miterlimit="10" width="96.344" height="42.008"/>
	
		<rect x="1155.021" y="990.778" fill="none" stroke="#FFFFFF" stroke-width="1.5" stroke-miterlimit="10" width="55.637" height="40.035"/>
	
		<rect x="1046.662" y="990.778" fill="none" stroke="#FFFFFF" stroke-width="1.5" stroke-miterlimit="10" width="96.344" height="40.035"/>
	
		<rect x="1031.115" y="941.619" fill="none" stroke="#FFFFFF" stroke-width="1.5" stroke-miterlimit="10" width="55.637" height="40.035"/>
	
		<rect x="1098.768" y="941.619" fill="none" stroke="#FFFFFF" stroke-width="1.5" stroke-miterlimit="10" width="96.346" height="40.035"/>
	
		<rect x="1098.768" y="840.432" fill="none" stroke="#FFFFFF" stroke-width="1.5" stroke-miterlimit="10" width="96.346" height="40.033"/>
	
		<rect x="1046.662" y="840.432" fill="none" stroke="#FFFFFF" stroke-width="1.5" stroke-miterlimit="10" width="39.195" height="40.033"/>
</g>
<g id="Capa_1_3_">
	<polygon fill="none" stroke="#FFFFFF" stroke-width="1.5" stroke-miterlimit="10" points="1880.346,1085.404 1880.52,948.143 
		1681.203,948.143 1681.318,1085.404 1625.537,1085.404 1625.537,878.209 1439.441,800.145 1439.441,1083.799 1422.537,1085.078 
		1396.512,1085.207 1396.512,914.129 1250.162,914.129 1250.162,1085.207 1210.148,1085.207 1210.148,1083.847 1029.986,1083.847 
		1029.986,1085.207 986.338,1085.207 986.338,1083.847 943.129,1083.847 943.129,1083.846 622.256,1083.846 622.256,1085.207 
		580.173,1085.207 580.173,674.569 444.445,674.569 444.445,1085.207 174,1085.207 174,629.641 115.228,629.641 115.228,581.541 
		51.841,581.541 51.841,629.641 33.252,629.641 33.252,1085.207 -8,1085.207 -8,1135.75 2074.994,1135.75 2074.994,1085.404 	"/>
</g>
<g id="Capa_2_2_">
</g>
</svg>
