<?xml version="1.0" encoding="utf-8"?>
<!-- Generator: Adobe Illustrator 16.0.0, SVG Export Plug-In . SVG Version: 6.00 Build 0)  -->
<!DOCTYPE svg PUBLIC "-//W3C//DTD SVG 1.1//EN" "http://www.w3.org/Graphics/SVG/1.1/DTD/svg11.dtd">
<svg version="1.1" id="Capa_1" xmlns="http://www.w3.org/2000/svg" xmlns:xlink="http://www.w3.org/1999/xlink" x="0px" y="0px"
	 width="6441.508px" height="346.214px" viewBox="0 0 6441.508 346.214" enable-background="new 0 0 6441.508 346.214"
	 xml:space="preserve">
<g>
	<g opacity="0.1">
		<path fill="#FFFFFF" d="M225.855,115.963c0-6.6-5.4-12-12-12H111.411c-6.6,0-12-5.4-12-12v-2.162c0-6.6-5.4-12-12-12H23.335
			c-6.6,0-12,5.4-12,12v2.745c0,6.6,5.4,12,12,12h9.137c6.6,0,12,5.4,12,12v0.706c0,6.6-5.4,12-12,12H12c-6.6,0-12,5.4-12,12v2.743
			c0,6.6,5.4,12,12,12h157.382c6.6,0,12-5.4,12-12v-1.288c0-6.6,5.4-12,12-12h20.473c6.6,0,12-5.4,12-12V115.963z"/>
	</g>
	<g opacity="0.1">
		<path fill="#FFFFFF" d="M720.55,274.556c-6.6,0-12-5.4-12-12v-0.417c0-6.6-5.4-12-12-12h-64.076c-6.6,0-12,5.4-12,12v2.745
			c0,6.6,5.4,12,12,12h21.347c6.6,0,12,5.4,12,12v0.415c0,6.6,5.4,12,12,12h94.596c6.6,0,12-5.4,12-12v-2.743c0-6.6-5.4-12-12-12
			H720.55z"/>
	</g>
	<g opacity="0.1">
		<path fill="#FFFFFF" d="M631.581,48.833c-6.6,0-12-4.97-12-11.045s5.4-11.045,12-11.045h15.239c6.6,0,12-5.4,12-12V12
			c0-6.6-5.4-12-12-12H538.272c-6.6,0-12,5.4-12,12v2.743c0,6.6,5.4,12,12,12h9.138c6.6,0,12,4.97,12,11.045s-5.4,11.045-12,11.045
			h-52.449c-6.6,0-12,5.4-12,12v2.742c0,6.6,5.4,12,12,12h196.624c6.6,0,12-5.4,12-12v-2.742c0-6.6-5.4-12-12-12H631.581z"/>
	</g>
	<g opacity="0.1">
		<path fill="#FFFFFF" d="M1113.11,118.059c0-6.6-5.4-12-12-12H992.563c-6.6,0-12,5.4-12,12v2.743c0,6.6,5.4,12,12,12h10.009
			c6.601,0,12,4.971,12,11.046s-5.399,11.046-12,11.046h-53.319c-6.6,0-12,5.4-12,12v2.742c0,6.6,5.4,12,12,12h86.02
			c6.6,0,12-5.4,12-12v-0.417c0-6.6,5.4-12,12-12h2.597c6.601,0,12.001-5.4,12.001-12v-0.417c0-6.6,5.398-12,11.998-12h15.242
			c6.6,0,12-5.4,12-12V118.059z"/>
	</g>
	<g opacity="0.1">
		<path fill="#FFFFFF" d="M1497.275,320.304c6.601-0.054,11.956-5.498,11.902-12.097l-0.022-2.743
			c-0.054-6.6-5.497-11.956-12.098-11.901l-71.105,0.581c-6.601,0.054-12.043-5.302-12.097-11.901l-0.003-0.42
			c-0.054-6.6-5.496-11.956-12.097-11.902l-44.844,0.366c-6.601,0.054-11.956,5.498-11.902,12.097l0.022,2.744
			c0.054,6.6,5.497,11.955,12.098,11.901l10.009-0.083c6.601-0.054,12.041,4.873,12.09,10.948
			c0.05,6.076-5.309,11.091-11.909,11.145L1314,319.471c-6.601,0.054-11.956,5.498-11.901,12.097l0.021,2.744
			c0.055,6.6,5.498,11.956,12.099,11.902l86.016-0.701c6.601-0.054,11.956-5.498,11.902-12.097l-0.003-0.418
			c-0.054-6.6,5.302-12.043,11.902-12.097L1497.275,320.304z"/>
	</g>
	<g opacity="0.1">
		<path fill="#FFFFFF" d="M1857.855,115.963c0-6.6-5.399-12-12-12h-102.444c-6.6,0-12-5.4-12-12v-2.162c0-6.6-5.4-12-12-12h-64.075
			c-6.601,0-12,5.4-12,12v2.745c0,6.6,5.399,12,12,12h9.138c6.6,0,12,5.4,12,12v0.706c0,6.6-5.4,12-12,12H1644
			c-6.601,0-12,5.4-12,12v2.743c0,6.6,5.399,12,12,12h157.382c6.601,0,12-5.4,12-12v-1.288c0-6.6,5.399-12,12-12h20.473
			c6.601,0,12-5.4,12-12V115.963z"/>
	</g>
	<g opacity="0.1">
		<path fill="#FFFFFF" d="M2352.55,274.556c-6.601,0-12-5.4-12-12v-0.417c0-6.6-5.399-12-12-12h-64.075c-6.601,0-12,5.4-12,12v2.745
			c0,6.6,5.399,12,12,12h21.347c6.601,0,12,5.4,12,12v0.415c0,6.6,5.399,12,12,12h94.597c6.6,0,12-5.4,12-12v-2.743
			c0-6.6-5.4-12-12-12H2352.55z"/>
	</g>
	<g opacity="0.1">
		<path fill="#FFFFFF" d="M2263.581,48.833c-6.6,0-12-4.97-12-11.045s5.4-11.045,12-11.045h15.24c6.6,0,12-5.4,12-12V12
			c0-6.6-5.4-12-12-12h-108.549c-6.6,0-12,5.4-12,12v2.743c0,6.6,5.4,12,12,12h9.138c6.601,0,12,4.97,12,11.045
			s-5.399,11.045-12,11.045h-52.448c-6.601,0-12,5.4-12,12v2.742c0,6.6,5.399,12,12,12h196.623c6.6,0,12-5.4,12-12v-2.742
			c0-6.6-5.4-12-12-12H2263.581z"/>
	</g>
	<g opacity="0.1">
		<path fill="#FFFFFF" d="M2745.11,118.059c0-6.6-5.4-12-12-12h-108.547c-6.6,0-12,5.4-12,12v2.743c0,6.6,5.4,12,12,12h10.009
			c6.601,0,12,4.971,12,11.046s-5.399,11.046-12,11.046h-53.319c-6.6,0-12,5.4-12,12v2.742c0,6.6,5.4,12,12,12h86.02
			c6.6,0,12-5.4,12-12v-0.417c0-6.6,5.4-12,12-12h2.597c6.601,0,12.001-5.4,12.001-12v-0.417c0-6.6,5.398-12,11.998-12h15.242
			c6.6,0,12-5.4,12-12V118.059z"/>
	</g>
	<g opacity="0.1">
		<path fill="#FFFFFF" d="M3129.275,320.304c6.601-0.054,11.956-5.498,11.902-12.097l-0.022-2.743
			c-0.054-6.6-5.497-11.956-12.098-11.901l-71.105,0.581c-6.601,0.054-12.043-5.302-12.097-11.901l-0.003-0.42
			c-0.054-6.6-5.496-11.956-12.097-11.902l-44.844,0.366c-6.601,0.054-11.956,5.498-11.902,12.097l0.022,2.744
			c0.054,6.6,5.497,11.955,12.098,11.901l10.009-0.083c6.601-0.054,12.041,4.873,12.09,10.948
			c0.05,6.076-5.309,11.091-11.909,11.145L2946,319.471c-6.601,0.054-11.956,5.498-11.901,12.097l0.021,2.744
			c0.055,6.6,5.498,11.956,12.099,11.902l86.016-0.701c6.601-0.054,11.956-5.498,11.902-12.097l-0.003-0.418
			c-0.054-6.6,5.302-12.043,11.902-12.097L3129.275,320.304z"/>
	</g>
	<g opacity="0.1">
		<path fill="#FFFFFF" d="M3526.185,115.963c0-6.6-5.399-12-12-12h-102.444c-6.6,0-12-5.4-12-12v-2.162c0-6.6-5.4-12-12-12h-64.075
			c-6.601,0-12,5.4-12,12v2.745c0,6.6,5.399,12,12,12h9.138c6.6,0,12,5.4,12,12v0.706c0,6.6-5.4,12-12,12h-20.473
			c-6.601,0-12,5.4-12,12v2.743c0,6.6,5.399,12,12,12h157.382c6.601,0,12-5.4,12-12v-1.288c0-6.6,5.399-12,12-12h20.473
			c6.601,0,12-5.4,12-12V115.963z"/>
	</g>
	<g opacity="0.1">
		<path fill="#FFFFFF" d="M4020.88,274.556c-6.601,0-12-5.4-12-12v-0.417c0-6.6-5.399-12-12-12h-64.075c-6.601,0-12,5.4-12,12v2.745
			c0,6.6,5.399,12,12,12h21.347c6.601,0,12,5.4,12,12v0.415c0,6.6,5.399,12,12,12h94.597c6.6,0,12-5.4,12-12v-2.743
			c0-6.6-5.4-12-12-12H4020.88z"/>
	</g>
	<g opacity="0.1">
		<path fill="#FFFFFF" d="M3931.911,48.833c-6.6,0-12-4.97-12-11.045s5.4-11.045,12-11.045h15.24c6.6,0,12-5.4,12-12V12
			c0-6.6-5.4-12-12-12h-108.549c-6.6,0-12,5.4-12,12v2.743c0,6.6,5.4,12,12,12h9.138c6.601,0,12,4.97,12,11.045
			s-5.399,11.045-12,11.045h-52.448c-6.601,0-12,5.4-12,12v2.742c0,6.6,5.399,12,12,12h196.623c6.6,0,12-5.4,12-12v-2.742
			c0-6.6-5.4-12-12-12H3931.911z"/>
	</g>
	<g opacity="0.1">
		<path fill="#FFFFFF" d="M4413.44,118.059c0-6.6-5.4-12-12-12h-108.547c-6.6,0-12,5.4-12,12v2.743c0,6.6,5.4,12,12,12h10.009
			c6.601,0,12,4.971,12,11.046s-5.399,11.046-12,11.046h-53.319c-6.6,0-12,5.4-12,12v2.742c0,6.6,5.4,12,12,12h86.02
			c6.6,0,12-5.4,12-12v-0.417c0-6.6,5.4-12,12-12h2.597c6.601,0,12.001-5.4,12.001-12v-0.417c0-6.6,5.398-12,11.998-12h15.242
			c6.6,0,12-5.4,12-12V118.059z"/>
	</g>
	<g opacity="0.1">
		<path fill="#FFFFFF" d="M4797.605,320.304c6.601-0.054,11.956-5.498,11.902-12.097l-0.022-2.743
			c-0.054-6.6-5.497-11.956-12.098-11.901l-71.105,0.581c-6.601,0.054-12.043-5.302-12.097-11.901l-0.003-0.42
			c-0.054-6.6-5.496-11.956-12.097-11.902l-44.844,0.366c-6.601,0.054-11.956,5.498-11.902,12.097l0.022,2.744
			c0.054,6.6,5.497,11.955,12.098,11.901l10.009-0.083c6.601-0.054,12.041,4.873,12.09,10.948
			c0.05,6.076-5.309,11.091-11.909,11.145l-53.318,0.433c-6.601,0.054-11.956,5.498-11.901,12.097l0.021,2.744
			c0.055,6.6,5.498,11.956,12.099,11.902l86.016-0.701c6.601-0.054,11.956-5.498,11.902-12.097l-0.003-0.418
			c-0.054-6.6,5.302-12.043,11.902-12.097L4797.605,320.304z"/>
	</g>
	<g opacity="0.1">
		<path fill="#FFFFFF" d="M5158.185,115.963c0-6.6-5.399-12-12-12h-102.444c-6.6,0-12-5.4-12-12v-2.162c0-6.6-5.4-12-12-12h-64.075
			c-6.601,0-12,5.4-12,12v2.745c0,6.6,5.399,12,12,12h9.138c6.6,0,12,5.4,12,12v0.706c0,6.6-5.4,12-12,12h-20.473
			c-6.601,0-12,5.4-12,12v2.743c0,6.6,5.399,12,12,12h157.382c6.601,0,12-5.4,12-12v-1.288c0-6.6,5.399-12,12-12h20.473
			c6.601,0,12-5.4,12-12V115.963z"/>
	</g>
	<g opacity="0.1">
		<path fill="#FFFFFF" d="M5652.88,274.556c-6.601,0-12-5.4-12-12v-0.417c0-6.6-5.399-12-12-12h-64.075c-6.601,0-12,5.4-12,12v2.745
			c0,6.6,5.399,12,12,12h21.347c6.601,0,12,5.4,12,12v0.415c0,6.6,5.399,12,12,12h94.597c6.6,0,12-5.4,12-12v-2.743
			c0-6.6-5.4-12-12-12H5652.88z"/>
	</g>
	<g opacity="0.1">
		<path fill="#FFFFFF" d="M5563.911,48.833c-6.6,0-12-4.97-12-11.045s5.4-11.045,12-11.045h15.24c6.6,0,12-5.4,12-12V12
			c0-6.6-5.4-12-12-12h-108.549c-6.6,0-12,5.4-12,12v2.743c0,6.6,5.4,12,12,12h9.138c6.601,0,12,4.97,12,11.045
			s-5.399,11.045-12,11.045h-52.448c-6.601,0-12,5.4-12,12v2.742c0,6.6,5.399,12,12,12h196.623c6.6,0,12-5.4,12-12v-2.742
			c0-6.6-5.4-12-12-12H5563.911z"/>
	</g>
	<g opacity="0.1">
		<path fill="#FFFFFF" d="M6045.44,118.059c0-6.6-5.4-12-12-12h-108.547c-6.6,0-12,5.4-12,12v2.743c0,6.6,5.4,12,12,12h10.009
			c6.601,0,12,4.971,12,11.046s-5.399,11.046-12,11.046h-53.319c-6.6,0-12,5.4-12,12v2.742c0,6.6,5.4,12,12,12h86.02
			c6.6,0,12-5.4,12-12v-0.417c0-6.6,5.4-12,12-12h2.597c6.601,0,12.001-5.4,12.001-12v-0.417c0-6.6,5.398-12,11.998-12h15.242
			c6.6,0,12-5.4,12-12V118.059z"/>
	</g>
	<g opacity="0.1">
		<path fill="#FFFFFF" d="M6429.605,320.304c6.601-0.054,11.956-5.498,11.902-12.097l-0.022-2.743
			c-0.054-6.6-5.497-11.956-12.098-11.901l-71.105,0.581c-6.601,0.054-12.043-5.302-12.097-11.901l-0.003-0.42
			c-0.054-6.6-5.496-11.956-12.097-11.902l-44.844,0.366c-6.601,0.054-11.956,5.498-11.902,12.097l0.022,2.744
			c0.054,6.6,5.497,11.955,12.098,11.901l10.009-0.083c6.601-0.054,12.041,4.873,12.09,10.948
			c0.05,6.076-5.309,11.091-11.909,11.145l-53.318,0.433c-6.601,0.054-11.956,5.498-11.901,12.097l0.021,2.744
			c0.055,6.6,5.498,11.956,12.099,11.902l86.016-0.701c6.601-0.054,11.956-5.498,11.902-12.097l-0.003-0.418
			c-0.054-6.6,5.302-12.043,11.902-12.097L6429.605,320.304z"/>
	</g>
</g>
</svg>
