<?xml version="1.0" encoding="utf-8"?>
<!-- Generator: Adobe Illustrator 16.0.0, SVG Export Plug-In . SVG Version: 6.00 Build 0)  -->
<!DOCTYPE svg PUBLIC "-//W3C//DTD SVG 1.1//EN" "http://www.w3.org/Graphics/SVG/1.1/DTD/svg11.dtd">
<svg version="1.1" id="Capa_1" xmlns="http://www.w3.org/2000/svg" xmlns:xlink="http://www.w3.org/1999/xlink" x="0px" y="0px"
	 width="1900px" height="892.827px" viewBox="0 0 1900 892.827" enable-background="new 0 0 1900 892.827" xml:space="preserve">
<g opacity="0.25">
	<path fill="#BAD0E2" d="M1900,574.772c-57.207-31.04-142.795-77.353-142.795-76.589v1.152L1900,575.329V574.772z"/>
	<path fill="#BAD0E2" d="M1900,183.062l-142.795,77.321c0,0,69.775-36.996,142.795-76.086V183.062z"/>
	<polygon fill="#BAD0E2" points="1900,85.647 1757.205,80.307 1900,86.749 	"/>
	<polygon fill="#AEC7DC" points="1873.221,766.089 1851.105,785.073 1851.041,785.117 1851.684,785.479 1850.098,785.943 
		1849.881,786.135 1849.733,786.045 1823.295,793.691 1900,793.691 1900,766.684 1900,743.386 1900,743.104 	"/>
	<polygon fill="#AEC7DC" points="1900,613.804 1757.205,647.097 1645.75,672.582 1757.205,691.294 1900,715.275 	"/>
	<polygon fill="#AEC7DC" points="1849.881,786.135 1850.098,785.943 1849.733,786.045 	"/>
	<polygon fill="#E1EAF3" points="1900,715.275 1757.205,691.294 1645.75,672.582 1645.482,672.638 1682.898,693.407 
		1757.205,733.938 1851.041,785.117 1851.105,785.073 1873.221,766.089 1900,743.104 	"/>
	<path fill="#BAD0E2" d="M1900,499.647l-142.795-1.464c0-0.764,85.588,45.549,142.795,76.589V499.647z"/>
	<polygon fill="#D2E0EC" points="1900,467.795 1757.205,411.605 1757.205,498.184 1900,499.647 	"/>
	<polygon fill="#E1EAF3" points="1900,402.964 1757.205,411.605 1900,467.795 	"/>
	<polygon fill="#D0DFEB" points="1900,318.317 1757.205,260.383 1757.205,411.605 1900,402.964 	"/>
	<path fill="#E1EAF3" d="M1900,184.297c-73.02,39.09-142.795,76.086-142.795,76.086L1900,318.317V184.297z"/>
	<polygon fill="#BAD0E2" points="1900,86.749 1757.205,80.307 1757.205,260.383 1900,183.062 	"/>
	<polygon fill="#C2D5E5" points="1831.502,0 1757.205,80.307 1900,85.647 1900,0 	"/>
	<polyline fill="#E6EEF6" points="1560.282,869.893 1757.205,812.844 1758.301,812.521 1822.307,793.988 1823.295,793.691 
		1849.733,786.045 1850.098,785.943 1851.684,785.479 1851.041,785.117 1757.205,733.938 1682.898,693.407 	"/>
	<polyline fill="#D0DFEB" points="1682.898,693.407 1645.015,672.749 1644.261,672.921 1644.553,672.49 1643.602,671.976 
		1643.54,672.066 1476.291,580.721 1540.004,793.691 1538.213,793.897 1538.213,793.918 1560.282,869.893 	"/>
	<polygon fill="#E6EEF6" points="1822.307,793.988 1823.408,793.691 1823.295,793.691 	"/>
	<polygon fill="#D0DFEB" points="1853.247,793.691 1853.17,793.691 1823.408,793.691 1822.307,793.988 1758.301,812.521 
		1757.205,812.844 1757.205,892.827 1816.676,892.827 1900,892.827 1900,892.695 1900,890.081 1900,793.691 	"/>
	<path fill="#D0DFEB" d="M0,125.354v0.154l54.311,6.74C54.311,132.248,32.264,129.439,0,125.354z"/>
	<path fill="#D0DFEB" d="M626.291,571.202L453.979,459.514C455.418,462.116,626.291,571.202,626.291,571.202z"/>
	<polygon fill="#D2E0EC" points="1028.844,527.048 834.811,535.706 1219.987,519.248 	"/>
	<polygon fill="#D0DFEB" points="1645.015,672.749 1682.898,693.407 1645.482,672.638 	"/>
	<polygon fill="#E1EAF3" points="1645.705,531.385 1476.291,580.721 1757.205,499.336 	"/>
	<polygon fill="#D2E0EC" points="141.195,650.562 172.096,767.15 118.032,554.742 	"/>
	<polygon fill="#D0DFEB" points="1198.273,417.958 1028.844,527.048 1341.63,327.052 	"/>
	<path fill="#D2E0EC" d="M1136.002,607.564l-301.191-71.858c-0.046-0.045-0.015-0.024,0.1,0.04
		C840.376,538.921,1136.002,607.564,1136.002,607.564z"/>
	<path fill="#C2D5E5" d="M1476.291,580.721c0,0,95.574-146.31,95.574-147.182L1476.291,580.721z"/>
	<path fill="#D2E0EC" d="M1359.611,708.475c-14.744-6.732-224.999-102.592-223.609-100.91L1359.611,708.475z"/>
	<path fill="#AEC7DC" d="M834.811,535.706l48.592,35.075c-27.647-20.061-46.881-33.979-48.492-35.035
		C834.796,535.682,834.765,535.661,834.811,535.706z"/>
	<path fill="#AEC7DC" d="M914.539,416.938l110.921-179.633h-0.012C1023.453,240.256,918.118,411.142,914.539,416.938z"/>
	<path fill="#D0DFEB" d="M385.96,273.244l-136.999-57.216l0.158,0.21c71.522,30.684,135.358,57.997,135.358,57.997L385.96,273.244z"
		/>
	<polygon fill="#C4D7E6" points="54.311,132.248 10.029,336.05 36.939,215.364 	"/>
	<path fill="#D2E0EC" d="M54.311,132.248c1.657,0.989,62.013,26.988,130.655,56.467L54.311,132.248z"/>
	<path fill="#AEC7DC" d="M1360.193,707.834c-3.449-11.369-43.179-116.723-43.179-116.723l43.093,116.814L1360.193,707.834z"/>
	<polygon fill="#E1EAF3" points="0,776.686 141.195,650.562 40.797,738.285 0,776.062 	"/>
	<path fill="#E1EAF3" d="M1078.607,42.872c17.423,24.344,263.022,284.18,263.022,284.18L1077.594,41.062l0.364,0.638
		C1078.127,42.003,1078.329,42.39,1078.607,42.872z"/>
	<polygon fill="#C2D5E5" points="378.07,793.691 396.611,830.062 396.646,830.062 378.399,793.691 307.24,651.71 343.918,726.75 	
		"/>
	<path fill="#AEC7DC" d="M1571.865,433.539L1341.63,327.052C1347.894,330.801,1571.865,433.539,1571.865,433.539z"/>
	<polygon fill="#C4D7E6" points="625.815,112.631 1025.46,237.306 801.498,166.883 	"/>
	<polygon fill="#E1EAF3" points="1025.46,237.306 1341.63,327.052 1216.615,291.553 	"/>
	<polygon fill="#E6EEF6" points="1230.935,0 1229.441,0 1341.63,327.052 1244.611,38.746 	"/>
	<polygon fill="#AEC7DC" points="888.384,643.928 963.693,793.691 834.811,535.706 	"/>
	<path fill="#E1EAF3" d="M672.207,718.26l-13.294-42.574c6.77,21.985,12.17,39.527,13.086,42.523L672.207,718.26z"/>
	<polygon fill="#D2E0EC" points="1643.602,671.976 1644.553,672.49 1757.205,499.336 	"/>
	<polygon fill="#E1EAF3" points="447.645,0.331 625.815,112.631 448.185,0.652 	"/>
	<polygon fill="#C2D5E5" points="297.592,360.813 384.478,274.235 222.335,432.639 	"/>
	<path fill="#E1EAF3" d="M1538.213,793.897l1.791-0.206l-63.713-212.971c0,0-115.84,130.726-115.84,128.133"/>
	<polyline fill="#E6EEF6" points="1360.451,708.854 1282.066,793.691 1253.3,824.863 1538.213,793.897 	"/>
	<path fill="#E6EEF6" d="M1360.451,708.854c0-0.115-0.128-0.509-0.258-1.02l-0.086,0.092L1360.451,708.854z"/>
	<polygon fill="#D2E0EC" points="1359.611,708.475 1136.002,607.564 1111.385,736.561 1360.451,708.854 	"/>
	<polygon fill="#C2D5E5" points="1360.451,708.854 1111.385,736.561 1203.206,793.691 1253.3,824.863 1282.066,793.691 	"/>
	<path fill="#E6EEF6" d="M834.91,535.746c1.611,1.056,20.845,14.975,48.492,35.035l70.135,50.641
		c0,0,156.391,113.406,157.848,115.139l24.617-128.996C1136.002,607.564,840.376,538.921,834.91,535.746z"/>
	<path fill="#D2E0EC" d="M953.537,621.422l10.156,172.27l147.691-57.131C1109.928,734.828,953.537,621.422,953.537,621.422z"/>
	<polygon fill="#AEC7DC" points="883.402,570.781 834.811,535.706 963.693,793.691 953.537,621.422 	"/>
	<polygon fill="#C2D5E5" points="743.411,793.691 707.38,830.926 963.693,793.691 888.384,643.928 	"/>
	<path fill="#E1EAF3" d="M658.913,675.686l13.294,42.574l0.427,0.117l23.248,75.314l11.498,37.234l36.031-37.234l144.973-149.764
		l-262.093-72.726C626.291,570.085,645.365,631.76,658.913,675.686z"/>
	<polygon fill="#BAD0E2" points="888.384,643.928 834.811,535.706 626.291,571.202 	"/>
	<path fill="#E6EEF6" d="M658.913,675.686c-13.548-43.926-32.622-105.601-32.622-104.483L511.887,673.352l160.112,44.857
		C671.083,715.213,665.683,697.671,658.913,675.686z"/>
	<polygon fill="#D2E0EC" points="672.634,718.377 672.207,718.26 671.999,718.209 511.887,673.352 661.184,793.691 707.38,830.926 
		695.882,793.691 	"/>
	<path fill="#D0DFEB" d="M453.979,459.514l57.908,213.838l114.404-102.149C626.291,571.202,455.418,462.116,453.979,459.514z"/>
	<polygon fill="#E1EAF3" points="307.24,651.71 511.887,673.352 453.979,459.514 	"/>
	<polygon fill="#C2D5E5" points="511.887,673.352 307.24,651.71 378.399,793.691 396.646,830.062 396.727,830.263 397.495,831.792 
		425.003,793.691 	"/>
	<polygon fill="#C2D5E5" points="307.24,651.71 172.096,767.15 343.918,726.75 	"/>
	<polygon fill="#D2E0EC" points="118.032,554.742 172.096,767.15 307.24,651.71 	"/>
	<polygon fill="#D0DFEB" points="338.122,493.274 118.032,554.742 307.24,651.71 453.979,459.514 	"/>
	<polygon fill="#E1EAF3" points="0,791.047 172.096,767.15 141.195,650.562 0,776.686 	"/>
	<polygon fill="#D0DFEB" points="0,581.775 141.195,650.562 118.032,554.742 0,539.256 	"/>
	<polygon fill="#D0DFEB" points="0,581.775 0,683.247 40.797,738.285 141.195,650.562 	"/>
	<polygon fill="#D0DFEB" points="0,683.247 0,776.062 40.797,738.285 	"/>
	<polygon fill="#D2E0EC" points="1757.205,499.336 1644.553,672.49 1644.261,672.921 1645.015,672.749 1645.482,672.638 
		1645.75,672.582 1757.205,647.097 1900,613.804 1900,575.329 	"/>
	<polygon fill="#E1EAF3" points="1476.291,580.721 1643.54,672.066 1643.602,671.976 1757.205,499.336 	"/>
	<polygon fill="#C4D7E6" points="626.291,571.202 639.316,396.312 453.979,459.514 	"/>
	<path fill="#D2E0EC" d="M222.28,432.671l-70.944-37.229c1.447,2.321-33.304,159.3-33.304,159.3l220.09-61.468l115.857-33.761
		L222.28,432.671z"/>
	<polygon fill="#C2D5E5" points="626.291,571.202 834.811,535.706 639.316,396.312 	"/>
	<path fill="#C2D5E5" d="M1359.611,708.475l0.84,0.379l-0.344-0.928l-43.093-116.814l-181.013,16.453
		C1134.612,605.883,1344.867,701.742,1359.611,708.475z"/>
	<path fill="#AEC7DC" d="M1360.193,707.834c0.13,0.511,0.258,0.904,0.258,1.02c0,2.593,115.84-128.133,115.84-128.133
		l-159.276,10.391C1317.015,591.111,1356.744,696.465,1360.193,707.834z"/>
	<path fill="#E6EEF6" d="M1571.865,433.539c0,0.872-95.574,147.182-95.574,147.182l169.414-49.336L1571.865,433.539z"/>
	<polygon fill="#E6EEF6" points="1757.205,499.336 1571.865,433.539 1645.705,531.385 	"/>
	<polygon fill="#E1EAF3" points="1757.205,499.322 1757.205,498.184 1757.205,411.903 1571.865,433.539 1757.205,499.336 	"/>
	<polygon fill="#C2D5E5" points="1464.7,500.204 1317.015,591.111 1476.291,580.721 1571.865,433.539 	"/>
	<polygon fill="#E1EAF3" points="1136.002,607.564 1317.015,591.111 1219.987,519.248 	"/>
	<polygon fill="#D2E0EC" points="1219.987,519.248 834.811,535.706 1136.002,607.564 	"/>
	<polygon fill="#BAD0E2" points="1317.015,591.111 1464.7,500.204 1219.987,519.248 	"/>
	<polygon fill="#C2D5E5" points="1219.987,519.248 1464.7,500.204 1341.63,327.052 	"/>
	<polygon fill="#D0DFEB" points="1028.844,527.048 1219.987,519.248 1341.63,327.052 	"/>
	<polygon fill="#E6EEF6" points="914.455,417.094 834.811,535.706 1028.844,527.048 	"/>
	<polygon fill="#C2D5E5" points="914.455,417.094 1028.844,527.048 1198.273,417.958 	"/>
	<polygon fill="#BAD0E2" points="639.316,396.312 834.811,535.706 914.455,417.094 	"/>
	<path fill="#BAD0E2" d="M1464.7,500.204l107.165-66.665c0,0-223.972-102.738-230.235-106.487L1464.7,500.204z"/>
	<path fill="#AEC7DC" d="M1571.865,433.539c0,0,23.158-225.101,23.158-228.566L1341.63,327.052L1571.865,433.539z"/>
	<path fill="#C2D5E5" d="M1571.865,433.539l185.34-174.306l-162.182-54.261C1595.023,208.438,1571.865,433.539,1571.865,433.539z"/>
	<polygon fill="#E6EEF6" points="1757.205,411.903 1757.205,411.605 1757.205,260.383 1757.205,259.233 1571.865,433.539 	"/>
	<polygon fill="#C4D7E6" points="0,500.369 0,539.256 118.032,554.742 	"/>
	<path fill="#E1EAF3" d="M151.336,395.442L0,394.087v106.282l118.032,54.373C118.032,554.742,152.783,397.764,151.336,395.442z"/>
	<polygon fill="#AEC7DC" points="0,394.087 151.336,395.442 9.916,336.578 0,332.388 	"/>
	<polygon fill="#E1EAF3" points="0,125.508 0,149.525 54.311,132.248 	"/>
	<polygon fill="#C4D7E6" points="0,149.525 0,332.388 9.916,336.578 10.029,336.05 54.311,132.248 	"/>
	<polygon fill="#D0DFEB" points="9.916,336.578 151.336,395.442 384.478,274.235 	"/>
	<polygon fill="#E1EAF3" points="36.939,215.364 10.029,336.05 9.916,336.578 384.478,274.235 	"/>
	<path fill="#E6EEF6" d="M384.478,274.235c0,0-63.836-27.313-135.358-57.997l0.199,0.283l-64.353-27.807
		c-68.643-29.479-128.998-55.478-130.655-56.467l-17.372,83.116L384.478,274.235z"/>
	<path fill="#E1EAF3" d="M1757.205,259.233V81.459c0,1.153-162.182,123.514-162.182,123.514L1757.205,259.233z"/>
	<path fill="#D0DFEB" d="M0,0v125.354c32.264,4.086,54.311,6.895,54.311,6.895L51.746,0H0z"/>
	<polygon fill="#C2D5E5" points="384.478,274.235 297.592,360.813 222.335,432.639 384.478,274.235 151.336,395.442 222.28,432.671 
		453.979,459.514 	"/>
	<path fill="#D2E0EC" d="M1025.46,237.306L914.539,416.938c-0.062,0.097-0.084,0.155-0.084,0.155l283.818,0.864l143.356-90.906
		L1025.46,237.306z"/>
	<polygon fill="#E1EAF3" points="1595.023,204.973 1519.735,14.504 1341.63,327.052 	"/>
	<polygon fill="#E6EEF6" points="552.442,162.27 388.337,274.235 385.96,273.244 384.478,274.235 453.979,459.514 625.815,112.631 	
		"/>
	<path fill="#7EA7C9" d="M1077.958,41.7l0.64,1.159c0,0,0.01,0,0.01,0.013C1078.329,42.39,1078.127,42.003,1077.958,41.7z"/>
	<polygon fill="#D2E0EC" points="248.961,216.028 247.399,215.364 167.271,104.547 95.785,0 51.746,0 54.311,132.248 
		184.966,188.715 249.318,216.521 249.119,216.238 	"/>
	<polygon fill="#D0DFEB" points="388.337,274.235 552.442,162.27 247.399,215.364 248.961,216.028 385.96,273.244 	"/>
	<polygon fill="#D2E0EC" points="453.979,459.514 639.316,396.312 625.815,112.631 	"/>
	<path fill="#AEC7DC" d="M1025.448,237.306L639.316,396.312l275.139,20.781c0,0,0.022-0.059,0.084-0.155
		C918.118,411.142,1023.453,240.256,1025.448,237.306z"/>
	<path fill="#E6EEF6" d="M1077.958,41.7l-0.364-0.638c-0.062,0.175,0.304,0.818,1.004,1.797L1077.958,41.7z"/>
	<path fill="#E1EAF3" d="M1078.607,42.872c0-0.013-0.01-0.013-0.01-0.013c-0.7-0.979-1.066-1.622-1.004-1.797l-52.123,196.209
		c0.036-0.03,0.02-0.03-0.011,0.034l191.155,54.247l125.015,35.499C1341.63,327.052,1096.03,67.216,1078.607,42.872z"/>
	<path fill="#E6EEF6" d="M1595.023,204.973c0,0,162.182-122.36,162.182-123.514l-237.47-66.955L1595.023,204.973z"/>
	<polygon fill="#E1EAF3" points="95.785,0 167.271,104.547 196.406,0 	"/>
	<polygon fill="#C4D7E6" points="1025.46,237.306 1025.46,237.306 625.815,112.631 639.316,396.312 1025.448,237.306 	"/>
	<polygon fill="#E6EEF6" points="1099.172,0 1077.594,41.062 1341.63,327.052 1229.441,0 	"/>
	<path fill="#D0DFEB" d="M1533.096,0c-8.43,9.162-13.36,14.504-13.36,14.504l237.47,66.955V0H1533.096z"/>
	<polygon fill="#C2D5E5" points="167.271,104.547 247.399,215.364 552.442,162.27 	"/>
	<polygon fill="#E1EAF3" points="625.815,112.631 167.271,104.547 552.442,162.27 	"/>
	<polygon fill="#D2E0EC" points="1341.63,327.052 1519.735,14.504 1244.611,38.746 	"/>
	<path fill="#E6EEF6" d="M1025.46,237.306L1025.46,237.306c0.03-0.064,0.047-0.064,0.011-0.034l52.123-196.209l-276.096,125.82
		L1025.46,237.306z"/>
	<polyline fill="#D0DFEB" points="167.271,104.547 625.815,112.631 447.645,0.331 	"/>
	<polygon fill="#D2E0EC" points="196.406,0 167.271,104.547 447.645,0.331 447.091,0 	"/>
	<polygon fill="#D0DFEB" points="1230.935,0 1244.611,38.746 1519.735,14.504 1489.602,0 	"/>
	<path fill="#C2D5E5" d="M1489.602,0l30.134,14.504c0,0,4.931-5.342,13.36-14.504H1489.602z"/>
	<polygon fill="#D2E0EC" points="684.376,0 625.815,112.631 1077.594,41.062 1002.875,0 	"/>
	<polygon fill="#E1EAF3" points="801.498,166.883 1077.594,41.062 625.815,112.631 	"/>
	<polygon fill="#D0DFEB" points="1002.875,0 1077.594,41.062 1099.172,0 	"/>
	<polygon fill="#E1EAF3" points="1757.205,0 1757.205,80.307 1831.502,0 	"/>
	<polygon fill="#E1EAF3" points="449.648,0 448.185,0.652 625.815,112.631 684.376,0 	"/>
	<polygon fill="#AEC7DC" points="605.682,831.215 711.715,831.792 963.693,793.691 707.38,830.926 	"/>
	<polygon fill="#C2D5E5" points="1538.213,793.897 1253.3,824.863 963.693,793.691 1253.3,828.326 1538.213,793.918 	"/>
	<path fill="#4F88B6" d="M423.288,892.827l-26.519-61.105l-0.158-0.011c2.388,6.209,12.4,29.613,26.028,61.116H423.288z"/>
	<polygon fill="#C2D5E5" points="0,806.043 0,892.827 106.854,892.827 	"/>
	<polygon fill="#E1EAF3" points="1757.205,892.827 1757.205,812.844 1560.282,869.893 1577.557,892.827 	"/>
	<path fill="#C2D5E5" d="M0,795.447v10.596l106.854,86.784h257.728c14.846-30.394,27.027-55.041,30.483-61.257L0,795.447z"/>
	<polygon fill="#AEC7DC" points="969.366,892.827 963.693,793.691 711.715,831.792 809.503,892.827 	"/>
	<polygon fill="#E6EEF6" points="1577.557,892.827 1560.282,869.893 1497.807,892.827 	"/>
	<polygon fill="#C2D5E5" points="1253.3,828.326 1560.282,869.893 1538.213,793.918 	"/>
	<polygon fill="#CDDDEA" points="396.72,830.249 396.727,830.263 396.646,830.062 396.611,830.062 	"/>
	<polygon fill="#E1EAF3" points="809.503,892.827 711.715,831.792 605.682,831.215 402.05,831.782 614.749,892.827 	"/>
	<polygon fill="#C2D5E5" points="1146.539,892.827 1253.3,828.326 963.693,793.691 969.366,892.827 	"/>
	<polygon fill="#C2D5E5" points="614.749,892.827 402.05,831.782 397.495,831.792 396.77,831.722 423.288,892.827 	"/>
	<polygon fill="#578DB9" points="396.72,830.249 397.495,831.792 396.727,830.263 	"/>
	<polygon fill="#AEC7DC" points="1497.807,892.827 1560.282,869.893 1253.3,828.326 1244.12,892.827 	"/>
	<polygon fill="#E6EEF6" points="1244.12,892.827 1253.3,828.326 1146.539,892.827 	"/>
	<polygon fill="#AEC7DC" points="1203.206,793.691 1111.385,736.561 963.693,793.691 1253.3,824.863 	"/>
	<polygon fill="#E6EEF6" points="661.184,793.691 511.887,673.352 425.003,793.691 397.495,831.792 402.05,831.782 605.682,831.215 
		707.38,830.926 	"/>
	<polygon fill="#E1EAF3" points="396.611,830.062 378.07,793.691 343.918,726.75 172.096,767.15 264.655,793.691 397.495,831.792 
		396.72,830.249 	"/>
	<path fill="#D0DFEB" d="M422.64,892.827c-13.628-31.503-23.641-54.907-26.028-61.116l0.158,0.011l0.726,0.07l-132.84-38.101
		l-92.56-26.541L0,791.047v4.4l395.064,36.123c-3.456,6.216-15.638,30.863-30.483,61.257H422.64z"/>
</g>
</svg>
